<svg id="Layer_1" data-name="Layer 1" xmlns="http://www.w3.org/2000/svg" viewBox="0 0 637 723"><defs><style>.cls-1{fill:#bfd9ff;}.cls-1,.cls-3,.cls-4{stroke:#000;stroke-miterlimit:10;stroke-width:4px;}.cls-2{font-size:44px;font-family:Papyrus-Regular, Papyrus;}.cls-3{fill:#fff;}.cls-4{fill:#7daffa;}</style></defs><g id="Resume"><path class="cls-1" d="M6.15,503.77C8.31,495,137.56,181.31,196.08,22.24c0,0,15.65-25.15,35.95-16.61S614,146.15,614,146.15s12.28,5.06,16.23,17.32c2.69,8.32.18,16-.56,18.28C573.52,357.5,502.43,528.12,439.51,701.56c-.7,1.93-3.26,9.54-10.22,13.29s-14.8,1.71-17.43,1C329.57,695,89.12,614.21,76.37,596.73,59.15,573.14,36.93,541.73,6.15,503.77Z"/><text class="cls-2" transform="translate(236.34 116.53) rotate(20.2)">Devin Von Arx</text><path class="cls-3" d="M179.51,171.4C227.4,188,274.72,207,322.62,223.52"/><path class="cls-3" d="M135,292.84c47.89,16.55,95.21,35.56,143.11,52.12"/><path class="cls-3" d="M105.32,373.55c47.9,16.55,95.22,35.56,143.11,52.12"/><path class="cls-3" d="M120.17,333.19c47.9,16.56,95.21,35.57,143.11,52.12"/><path class="cls-3" d="M164.71,212.12c47.9,16.56,95.21,35.57,143.11,52.12"/><path class="cls-3" d="M149.86,252.48C197.76,269,245.08,288.05,293,304.6"/><path class="cls-3" d="M90.48,413.9c47.89,16.56,95.21,35.57,143.11,52.12"/><path class="cls-3" d="M75.63,454.26c47.9,16.55,95.21,35.56,143.11,52.12"/><path class="cls-3" d="M60.79,494.61c47.89,16.56,95.21,35.57,143.1,52.12"/><path class="cls-3" d="M45.94,535c47.9,16.55,95.21,35.57,143.11,52.12"/><path class="cls-3" d="M377.73,244c47.9,16.55,95.21,35.56,143.11,52.12"/><path class="cls-3" d="M333.24,365.4C381.13,382,428.45,401,476.35,417.52"/><path class="cls-3" d="M303.55,446.11c47.89,16.55,95.21,35.57,143.1,52.12"/><path class="cls-3" d="M318.39,405.75c47.9,16.56,95.21,35.57,143.11,52.12"/><path class="cls-3" d="M362.93,284.69c47.9,16.55,95.21,35.56,143.11,52.12"/><path class="cls-3" d="M348.08,325c47.9,16.56,95.22,35.57,143.11,52.12"/><path class="cls-3" d="M288.7,486.47C336.6,503,383.91,522,431.81,538.59"/><path class="cls-3" d="M273.85,526.82c47.9,16.56,95.22,35.57,143.11,52.12"/><path class="cls-3" d="M259,567.18c47.89,16.55,95.21,35.56,143.11,52.12"/><path class="cls-3" d="M244.16,607.53c47.9,16.56,95.21,35.57,143.11,52.12"/><path class="cls-4" d="M9.33,508.12C68,515,103,515,105.42,523.28,108,530,89.9,568.73,79.92,598.6Z"/></g></svg>